<?xml version="1.0" standalone="no"?>
<!DOCTYPE svg PUBLIC "-//W3C//DTD SVG 20010904//EN"
 "http://www.w3.org/TR/2001/REC-SVG-20010904/DTD/svg10.dtd">
<svg version="1.0" xmlns="http://www.w3.org/2000/svg"
 width="512.000000pt" height="512.000000pt" viewBox="0 0 512.000000 512.000000"
 preserveAspectRatio="xMidYMid meet">
<metadata>
Created by potrace 1.11, written by Peter Selinger 2001-2013
</metadata>
<g transform="translate(0.000000,512.000000) scale(0.100000,-0.100000)"
fill="#000000" stroke="none">
<path d="M2240 4909 c-105 -7 -248 -22 -310 -34 -398 -78 -756 -243 -1060
-489 -178 -143 -402 -395 -505 -568 -87 -145 -185 -337 -185 -361 0 -7 -4 -17
-9 -22 -12 -14 -65 -173 -95 -285 -55 -212 -71 -346 -71 -600 1 -189 7 -271
34 -415 15 -83 24 -121 40 -180 144 -529 462 -988 904 -1306 143 -102 278
-178 467 -262 78 -35 301 -106 380 -121 14 -3 50 -10 80 -15 30 -6 64 -13 75
-15 11 -2 52 -7 90 -11 39 -4 79 -9 90 -11 27 -6 354 -5 385 0 14 2 54 7 90
11 36 3 110 15 165 26 650 129 1209 519 1557 1085 306 496 413 1106 298 1684
-11 52 -21 105 -22 117 -2 16 46 71 203 230 113 114 217 228 231 253 38 67 51
131 46 210 -9 115 -35 154 -262 385 -196 198 -212 211 -311 250 -35 14 -141
14 -192 1 -77 -20 -106 -40 -213 -143 -56 -54 -105 -99 -109 -101 -4 -1 -28
16 -52 39 -153 145 -364 296 -550 392 -296 152 -660 249 -963 256 -50 1 -92 3
-95 5 -4 1 -62 -1 -131 -5z"/>
</g>
</svg>
